<svg fill="#000000" xmlns="http://www.w3.org/2000/svg" viewBox="0 0 45 40" width="50" height="50">
    <path d="M 21 3 C 11.623004 3 4 10.623004 4 20 C 4 29.376996 11.623004 37 21 37 C 24.712381 37 28.139151 35.791079 30.9375 33.765625 L 44.085938 46.914062 L 46.914062 44.085938 L 33.886719 31.058594 C 36.443537 28.083001 38 24.223631 38 20 C 38 10.623004 30.376996 3 21 3 z M 21 5 C 29.296116 5 36 11.703884 36 20 C 36 28.296116 29.296116 35 21 35 C 12.703884 35 6 28.296116 6 20 C 6 11.703884 12.703884 5 21 5 z M 17.466797 13 C 14.374627 13 12 15.365806 12 18.457031 C 12 20.16442 12.698505 21.600612 13.636719 22.769531 C 14.574932 23.938451 15.748803 24.889992 16.849609 25.794922 L 16.849609 25.792969 C 17.858273 26.624725 20.351562 28.759766 20.351562 28.759766 A 1.0001 1.0001 0 0 0 21.652344 28.759766 C 21.652344 28.759766 24.143599 26.625137 25.152344 25.794922 C 26.251427 24.890177 27.425068 23.938416 28.363281 22.769531 C 29.301495 21.600693 30 20.164242 30 18.457031 C 30 15.36606 27.626196 13 24.533203 13 C 22.970858 13 21.847636 13.794934 20.998047 14.546875 C 20.150124 13.794211 19.028524 13 17.466797 13 z M 17.466797 15 C 18.500843 15 19.650414 15.867221 20.271484 16.521484 A 1.0001 1.0001 0 0 0 21.720703 16.523438 C 22.347207 15.867095 23.499157 15 24.533203 15 C 26.696211 15 28 16.300003 28 18.457031 C 28 19.63682 27.556521 20.578463 26.802734 21.517578 C 26.048948 22.456693 24.981776 23.343745 23.880859 24.25 C 23.016705 24.961214 21.635169 26.145772 21 26.689453 C 20.363353 26.145107 18.981712 24.959676 18.121094 24.25 A 1.0001 1.0001 0 0 0 18.119141 24.25 C 17.016994 23.34393 15.94885 22.456409 15.195312 21.517578 C 14.441777 20.578747 14 19.637643 14 18.457031 C 14 16.300257 15.304966 15 17.466797 15 z"></path>
</svg>