<svg height="50" width="50" fill="#000000" xmlns="http://www.w3.org/2000/svg" xmlns:xlink="http://www.w3.org/1999/xlink" version="1.1" x="0px" y="0px" viewBox="0 0 28 24" style="enable-background:new 0 0 28 24;" xml:space="preserve">
    <path d="M28,20.6l-3-3C28.1,13.7,27.4,8,23.5,5s-9.6-2.4-12.6,1.5S8.5,16,12.4,19.1c3.3,2.6,8,2.6,11.3-0.1l3,3L28,20.6z M11,12  c0-3.9,3.1-7,7-7s7,3.1,7,7s-3.1,7-7,7S11,15.9,11,12z"></path><path d="M9.5,5H0v2h8.2C8.6,6.3,9,5.6,9.5,5z"></path><path d="M8.2,17H0v2h9.5C9,18.4,8.6,17.7,8.2,17z"></path><path d="M7,12c0-0.3,0-0.7,0-1H0v2h7.1C7,12.7,7,12.3,7,12z"></path>
</svg>