<svg height="54" width="54" fill="#000000" xmlns="http://www.w3.org/2000/svg" viewBox="0 0 32 32" x="0px" y="0px">
    <g data-name="14-favorite-list"><path d="M22,26a1,1,0,0,1-.69-.28L15.43,20a4.62,4.62,0,0,1,0-6.68A4.84,4.84,0,0,1,18.82,12h0A4.86,4.86,0,0,1,22,13.15a5,5,0,0,1,6.57.21,4.62,4.62,0,0,1,0,6.68l-5.88,5.68A1,1,0,0,1,22,26ZM18.83,14a2.88,2.88,0,0,0-2,.8,2.61,2.61,0,0,0,0,3.8l5.18,5,5.18-5a2.61,2.61,0,0,0,0-3.8,2.93,2.93,0,0,0-4,0h0l-.46.44a1,1,0,0,1-1.38,0l-.46-.44a2.87,2.87,0,0,0-2-.8Zm3.62.08h0Z"></path><path d="M29,8H3A1,1,0,0,1,3,6H29a1,1,0,0,1,0,2Z"></path><path d="M11,14H3a1,1,0,0,1,0-2h8a1,1,0,0,1,0,2Z"></path><path d="M11,20H3a1,1,0,0,1,0-2h8a1,1,0,0,1,0,2Z"></path><path d="M15,26H3a1,1,0,0,1,0-2H15a1,1,0,0,1,0,2Z"></path></g>
</svg>